<svg width="34" height="34" viewBox="0 0 34 34" fill="none" xmlns="http://www.w3.org/2000/svg">
<path d="M32 32H2" stroke="#2E8FFF" stroke-width="3" stroke-linecap="round"/>
<path d="M30.5 31.9998V20.7498C30.5 20.1531 30.2629 19.5808 29.841 19.1588C29.419 18.7369 28.8467 18.4998 28.25 18.4998H23.75C23.1533 18.4998 22.581 18.7369 22.159 19.1588C21.7371 19.5808 21.5 20.1531 21.5 20.7498V31.9998" stroke="#2E8FFF" stroke-width="3"/>
<path d="M21.5 32V12.5M12.5 32V6.5C12.5 4.379 12.5 3.3185 13.16 2.66C13.817 2 14.8775 2 17 2C19.1225 2 20.1815 2 20.84 2.66C21.5 3.317 21.5 4.3775 21.5 6.5" stroke="#2E8FFF" stroke-width="3" stroke-linecap="round" stroke-linejoin="round"/>
<path d="M12.5 31.9998V13.2498C12.5 12.6531 12.2629 12.0808 11.841 11.6588C11.419 11.2369 10.8467 10.9998 10.25 10.9998H5.75C5.15326 10.9998 4.58097 11.2369 4.15901 11.6588C3.73705 12.0808 3.5 12.6531 3.5 13.2498V22.9998M3.5 31.9998V28.6248" stroke="#2E8FFF" stroke-width="3" stroke-linecap="round"/>
</svg>
