<svg width="78" height="78" viewBox="0 0 78 78" fill="none" xmlns="http://www.w3.org/2000/svg">
<mask id="mask0_460_3996" style="mask-type:luminance" maskUnits="userSpaceOnUse" x="1" y="1" width="75" height="75">
<path d="M1.94336 1.94434H75.8719V75.8729H1.94336V1.94434Z" fill="white"/>
</mask>
<g mask="url(#mask0_460_3996)">
<mask id="mask1_460_3996" style="mask-type:luminance" maskUnits="userSpaceOnUse" x="1" y="1" width="75" height="75">
<path d="M38.9199 1.94434C18.498 1.94434 1.94336 18.499 1.94336 38.9209C1.94336 59.3417 18.498 75.8964 38.9199 75.8964C59.3407 75.8964 75.8954 59.3417 75.8954 38.9209C75.8954 18.499 59.3407 1.94434 38.9199 1.94434Z" fill="white"/>
</mask>
<g mask="url(#mask1_460_3996)">
<path d="M38.9199 1.94434C18.4981 1.94434 1.94336 18.499 1.94336 38.9209C1.94336 59.3417 18.4981 75.8964 38.9199 75.8964C59.3407 75.8964 75.8954 59.3417 75.8954 38.9209C75.8954 18.499 59.3407 1.94434 38.9199 1.94434Z" stroke="white" stroke-width="4"/>
</g>
</g>
<mask id="mask2_460_3996" style="mask-type:luminance" maskUnits="userSpaceOnUse" x="8" y="34" width="38" height="15">
<path d="M8.08789 34H45.9997V48.5714H8.08789V34Z" fill="white"/>
</mask>
<g mask="url(#mask2_460_3996)">
<path fill-rule="evenodd" clip-rule="evenodd" d="M13.4355 48.3281C12.7693 46.2299 13.5583 43.9353 15.3351 42.6763C17.1376 41.3929 19.5315 41.4174 21.3083 42.7009C23.0851 44.0089 23.8251 46.2801 23.1588 48.3772C23.1588 48.3772 26.4657 45.0949 33.1052 38.5301C33.4992 38.0614 33.9936 37.8638 34.6097 37.9129C34.6097 37.9129 35.6956 37.9129 37.8675 37.9129C38.4355 37.8884 38.8797 38.0614 39.2001 38.481C39.2001 38.481 39.719 39.0234 40.7559 40.1339C40.9523 40.529 41.4958 40.6775 42.3842 40.6038C42.3842 40.6038 43.5192 40.6038 45.815 40.6038C45.815 40.6038 43.9389 38.654 40.1632 34.779C40.0148 34.2366 39.5215 33.9888 38.7313 34.0391C38.7313 34.0391 37.1521 34.0882 33.9936 34.1373C33.3518 33.9888 32.8083 34.1864 32.3641 34.7299C32.3641 34.7299 31.3273 35.7165 29.3038 37.6909C28.7369 38.2835 28.0449 38.5547 27.2313 38.4565C27.2313 38.4565 23.1833 38.4565 15.0639 38.5056C13.1141 38.2098 11.8306 38.8761 11.2146 40.4554C11.2146 40.4554 10.2023 43.0469 8.1543 48.2288C11.6588 48.3036 13.4355 48.3281 13.4355 48.3281Z" fill="white"/>
</g>
<mask id="mask3_460_3996" style="mask-type:luminance" maskUnits="userSpaceOnUse" x="23" y="34" width="46" height="20">
<path d="M23.1426 34H68.7308V53.4286H23.1426V34Z" fill="white"/>
</mask>
<g mask="url(#mask3_460_3996)">
<path fill-rule="evenodd" clip-rule="evenodd" d="M31.2525 44.9967C27.3038 48.8214 25.3295 50.7467 25.3295 50.7467C24.8853 51.1172 24.2436 51.1172 23.7994 50.7712C23.3306 50.4007 23.1822 49.7846 23.4534 49.2411C27.9947 44.6016 30.2659 42.2812 30.2659 42.2812C32.6342 39.9375 33.8194 38.7768 33.8194 38.7768C34.0907 38.5056 34.4612 38.4074 34.9299 38.481C36.8306 38.4565 37.7681 38.4565 37.7681 38.4565C38.3105 38.4319 38.7056 38.6786 38.9523 39.1719C39.9154 40.1596 40.4087 40.6529 40.4087 40.6529C40.8038 41.048 41.2726 41.1953 41.815 41.1217C45.3697 41.1217 47.1465 41.1217 47.1465 41.1217C42.6788 36.5558 40.4578 34.2857 40.4578 34.2857C42.8764 34.2366 44.0862 34.2109 44.0862 34.2109C44.6788 34.2109 45.1967 34.3839 45.69 34.779C48.257 37.3214 49.5404 38.6038 49.5404 38.6038C62.3239 38.5301 68.7157 38.5056 68.7157 38.5056C66.9143 43.442 66.0259 45.9096 66.0259 45.9096C65.5817 47.3404 64.6933 48.1551 63.3116 48.3036C63.9288 46.2299 63.1878 44.0335 61.4601 42.75C59.7324 41.4922 57.3887 41.4676 55.6119 42.6763C53.8585 43.8862 53.0449 46.0826 53.5873 48.1551C50.2313 44.9721 48.5527 43.3917 48.5527 43.3917C46.9735 42.8739 45.9612 43.3672 45.517 44.8728C45.0237 44.3549 44.2335 44.1328 43.5427 44.3549C42.8273 44.577 42.3094 45.1696 42.1855 45.9096C41.6431 45.3661 40.8284 45.1942 40.113 45.4408C39.3965 45.7121 38.9032 46.3783 38.8295 47.1183C38.1386 46.3538 36.9534 46.2545 36.1386 46.8962C35.325 47.5134 35.1275 48.6741 35.7201 49.5368C33.4244 51.8571 32.2648 53.0167 32.2648 53.0167C31.796 53.3873 31.1297 53.3873 30.6598 53.0167C30.1665 52.6473 30.0181 51.981 30.2659 51.4375C32.7581 48.9699 34.017 47.7355 34.017 47.7355C34.1398 47.6618 34.19 47.5134 34.1398 47.3661C34.0907 47.2176 33.9924 47.1183 33.844 47.1183C33.6956 47.0938 33.5728 47.1685 33.498 47.2913C30.3395 50.3761 28.7357 51.9062 28.7357 51.9062C28.2659 52.1038 27.6989 52.0301 27.3038 51.6842C26.8842 51.3393 26.7112 50.7958 26.8596 50.2779C30.0929 47.0201 31.7212 45.4163 31.7212 45.4163C31.796 45.317 31.8206 45.1942 31.796 45.0949C31.7715 44.9721 31.6721 44.8973 31.5482 44.8728C31.45 44.8728 31.3261 44.8973 31.2525 44.9967Z" fill="white"/>
</g>
<path fill-rule="evenodd" clip-rule="evenodd" d="M33.6965 52.5236C33.5491 53.0917 33.7958 53.7334 34.3136 54.0292C34.8315 54.3495 35.4989 54.2758 35.9431 53.8562C35.9431 53.8562 36.6094 53.1653 37.9174 51.8082C37.9174 51.8082 37.3248 51.2155 36.115 50.0068C34.5112 51.6843 33.6965 52.5236 33.6965 52.5236Z" fill="white"/>
<mask id="mask4_460_3996" style="mask-type:luminance" maskUnits="userSpaceOnUse" x="36" y="47" width="8" height="8">
<path d="M36 47.1431H43.4286V54.5605H36V47.1431Z" fill="white"/>
</mask>
<g mask="url(#mask4_460_3996)">
<path fill-rule="evenodd" clip-rule="evenodd" d="M36.1387 49.0193C35.9422 48.5014 36.0896 47.8842 36.5092 47.5137C36.9534 47.1443 37.5706 47.094 38.0639 47.3909C38.0639 47.3909 39.767 49.0929 43.1733 52.4992C43.4445 53.0918 43.2469 53.8072 42.7034 54.1778C42.1364 54.5472 41.3965 54.449 40.9512 53.9557C40.9512 53.9557 39.3474 52.3016 36.1387 49.0193Z" fill="white"/>
</g>
<path fill-rule="evenodd" clip-rule="evenodd" d="M39.4714 47.8592C39.2739 47.3402 39.4212 46.7241 39.8408 46.3536C40.285 45.9831 40.9022 45.934 41.3966 46.2297C41.3966 46.2297 43.0987 47.9328 46.5049 51.3391C46.7761 51.9306 46.5786 52.6471 46.0116 53.0166C45.4681 53.3871 44.7281 53.2889 44.2839 52.7945C44.2839 52.7945 42.679 51.1416 39.4714 47.8592Z" fill="white"/>
<path fill-rule="evenodd" clip-rule="evenodd" d="M42.9022 46.6989C42.7047 46.1565 42.8531 45.5638 43.2973 45.1944C43.7169 44.8239 44.3341 44.7748 44.8274 45.0705C44.8274 45.0705 46.5306 46.7737 49.9368 50.1542C50.208 50.7714 50.0105 51.4868 49.4669 51.8574C48.9 52.2279 48.1589 52.1286 47.7147 51.6107C47.7147 51.6107 46.1109 49.9824 42.9022 46.6989Z" fill="white"/>
<path fill-rule="evenodd" clip-rule="evenodd" d="M46.4058 45.5393C46.1837 44.9969 46.3567 44.4042 46.7764 44.0337C47.2206 43.6643 47.8377 43.6141 48.331 43.9109C48.331 43.9109 50.0342 45.6141 53.4148 48.9946C53.7116 49.6118 53.5141 50.3272 52.946 50.6978C52.4036 51.0672 51.6625 50.969 51.2183 50.4511C51.2183 50.4511 49.6145 48.8217 46.4058 45.5393Z" fill="white"/>
<path fill-rule="evenodd" clip-rule="evenodd" d="M18.3457 42.356C20.7151 42.356 22.6649 44.2801 22.6649 46.674C22.6649 49.068 20.7151 50.9932 18.3457 50.9932C15.9517 50.9932 14.002 49.068 14.002 46.674C14.002 44.2801 15.9517 42.356 18.3457 42.356ZM18.3457 44.3794C19.6046 44.3794 20.6158 45.4162 20.6158 46.674C20.6158 47.933 19.6046 48.9698 18.3457 48.9698C17.0622 48.9698 16.0511 47.933 16.0511 46.674C16.0511 45.4162 17.0622 44.3794 18.3457 44.3794Z" fill="white"/>
<path fill-rule="evenodd" clip-rule="evenodd" d="M58.5977 42.356C60.9671 42.356 62.9169 44.2801 62.9169 46.674C62.9169 49.068 60.9671 50.9932 58.5977 50.9932C56.2037 50.9932 54.2539 49.068 54.2539 46.674C54.2539 44.2801 56.2037 42.356 58.5977 42.356ZM58.5977 44.3794C59.8566 44.3794 60.8689 45.4162 60.8689 46.674C60.8689 47.933 59.8566 48.9698 58.5977 48.9698C57.3142 48.9698 56.303 47.933 56.303 46.674C56.303 45.4162 57.3142 44.3794 58.5977 44.3794Z" fill="white"/>
<path d="M12.8527 32.7052C13.5826 30.9798 14.0603 29.8034 14.2857 29.1784C14.3393 29.0333 14.3371 28.9005 14.2813 28.7811C14.2243 28.6628 14.1228 28.5758 13.9777 28.5222L13.1072 28.2052L12.3036 30.424C12.0603 31.1025 11.731 31.54 11.317 31.7365C10.9007 31.9307 10.3527 31.905 9.67412 31.6606L9.3884 31.5579C8.71318 31.3146 8.2768 30.9854 8.08037 30.5713C7.88394 30.155 7.90849 29.607 8.1518 28.9284L9.37501 25.54L10.7277 26.0266L9.64733 29.0311C9.50782 29.4184 9.63171 29.6818 10.0179 29.8213L10.2054 29.8883C10.5926 30.0289 10.856 29.905 10.9955 29.5177L11.6205 27.7766C11.8505 27.1494 12.1674 26.7409 12.5714 26.5534C12.9732 26.3637 13.4889 26.3827 14.1161 26.6115L14.6027 26.7856C15.2299 27.0121 15.6395 27.328 15.8304 27.732C16.0234 28.1338 16.0056 28.6494 15.7768 29.2766C15.6574 29.607 15.5246 29.9541 15.3795 30.3168L15.0179 31.1874C14.75 31.8336 14.4609 32.4954 14.1518 33.174L12.8527 32.7052Z" fill="white"/>
<path d="M17.8979 25.0185L16.6747 26.5988L12.6523 20.0542L13.9113 18.4292L21.255 20.6747L20.0318 22.2551L18.7372 21.8354L17.1702 23.8622L17.8979 25.0185ZM16.3934 22.6881L17.3979 21.389L14.9827 20.5587L16.3934 22.6881Z" fill="white"/>
<path d="M22.9408 17.7327L26.0078 15.5854L26.8337 16.764L22.2533 19.9738L18.1328 14.0898L19.6462 13.0273L22.9408 17.7327Z" fill="white"/>
<path d="M33.5502 14.3584L28.1484 16.1664L25.8672 9.35393L31.269 7.5459L31.7288 8.91197L28.077 10.1352L28.5145 11.4477L31.385 10.4879L31.8404 11.8495L28.9699 12.8093L29.4431 14.22L33.0949 12.9968L33.5502 14.3584Z" fill="white"/>
<path d="M34.8003 12.6502C36.6775 12.7038 37.9487 12.7238 38.6128 12.7082C38.7668 12.7026 38.8896 12.6535 38.9788 12.5609C39.0704 12.466 39.115 12.3399 39.1128 12.1814L39.0904 11.2573L36.7288 11.3154C36.0079 11.3332 35.4811 11.1848 35.1485 10.8689C34.8148 10.5509 34.6396 10.0319 34.6217 9.3109L34.6128 9.00732C34.5949 8.28746 34.7433 7.76179 35.0592 7.43143C35.3773 7.10107 35.8962 6.92697 36.6172 6.90911L40.2199 6.81982L40.2556 8.25286L37.0637 8.33322C36.6529 8.34215 36.4521 8.55197 36.461 8.96268L36.4699 9.16357C36.4788 9.57429 36.6887 9.77518 37.0994 9.76625L38.9476 9.71715C39.6172 9.70264 40.1128 9.84884 40.4342 10.1546C40.7556 10.4616 40.9253 10.9493 40.9431 11.6189L40.9565 12.1323C40.971 12.802 40.8248 13.2997 40.519 13.6234C40.2154 13.9482 39.7288 14.1178 39.0592 14.1323C38.7076 14.1413 38.336 14.1435 37.9431 14.1368L37.0012 14.1234C36.3014 14.1089 35.5782 14.0788 34.8315 14.0341L34.8003 12.6502Z" fill="white"/>
<path d="M48.5249 15.7968C46.9379 15.5077 45.5037 15.1763 44.2214 14.8013C43.5752 14.6104 43.1455 14.3202 42.9312 13.9307C42.7169 13.5412 42.7035 13.0245 42.891 12.3816L43.8151 9.22985C44.0171 8.54011 44.3196 8.08476 44.7214 7.86377C45.1254 7.64391 45.6745 7.63498 46.3687 7.83699L49.9089 8.87717L49.5026 10.2566L46.3553 9.33252C45.9624 9.21645 45.708 9.35485 45.5919 9.7477L44.6678 12.8995C44.6254 13.0513 44.6343 13.1852 44.6946 13.3013C44.7571 13.4151 44.8642 13.4932 45.016 13.5379C45.7682 13.7589 46.4624 13.9464 47.0964 14.1004L47.516 12.6673L46.2348 12.2879L46.583 11.1048L49.6366 12.0022L48.5249 15.7968Z" fill="white"/>
<path d="M54.7288 19.9015L49.9922 16.7408L53.9833 10.7676L58.7199 13.9283L57.9208 15.1247L54.7199 12.9908L53.952 14.1426L56.4699 15.8211L55.6708 17.0131L53.1529 15.3345L52.327 16.5711L55.5279 18.7051L54.7288 19.9015Z" fill="white"/>
<path d="M56.6309 21.913L55.3809 20.355L62.6844 17.98L63.9701 19.5827L60.0684 26.1943L58.8184 24.6362L59.5282 23.4755L57.921 21.4711L56.6309 21.913ZM59.2514 20.9978L60.2782 22.2791L61.6487 20.1228L59.2514 20.9978Z" fill="white"/>
<path d="M67.279 24.7505L68.779 28.7951C69.029 29.467 69.058 30.0117 68.8683 30.4291C68.6775 30.8454 68.2444 31.1791 67.5692 31.4291L66.7076 31.7505C66.1741 31.9469 65.7266 32.0117 65.3638 31.9469C65.0033 31.8811 64.7042 31.6746 64.4665 31.3264L62.7969 33.313L62.1004 31.438L63.7121 29.5808L63.2121 28.2371L61.1897 28.9871L60.5469 27.2505L67.279 24.7505ZM66.9263 29.6969C67.3125 29.5541 67.4353 29.2918 67.2924 28.9112L66.5781 26.9871L64.5603 27.7371L65.2746 29.6612C65.4174 30.0418 65.6808 30.1612 66.0647 30.0183L66.9263 29.6969Z" fill="white"/>
<path d="M22.6105 64.2478L21.1908 64.9442L20.5569 64.5022L20.7087 62.9263L19.481 64.6942L18.6641 64.1272L20.8694 60.9531L21.731 61.5513L21.4766 63.8638L23.5435 62.8147L24.4051 63.4129L22.1998 66.5871L21.3828 66.0156L22.6105 64.2478Z" fill="white"/>
<path d="M24.3404 67.6981L23.3672 67.2427L26.327 64.3633L27.3315 64.832L27.019 68.9526L26.0413 68.4927L26.1127 67.7651L24.8627 67.1802L24.3404 67.6981ZM25.3895 66.6356L26.1886 67.0106L26.3404 65.6445L25.3895 66.6356Z" fill="white"/>
<path d="M31.4886 70.3334L30.4796 70.0388L29.8591 67.4406L29.2073 69.6682L28.252 69.3915L29.3368 65.6816L30.3457 65.9763L30.9662 68.5745L31.618 66.3468L32.5734 66.6236L31.4886 70.3334Z" fill="white"/>
<path d="M36.1789 71.0864L33.1387 70.6668L33.6655 66.8364L36.7056 67.2561L36.5985 68.0195L34.5449 67.7337L34.4467 68.4748L36.0628 68.698L35.9556 69.4614L34.3396 69.2382L34.2324 70.0373L36.286 70.323L36.1789 71.0864Z" fill="white"/>
<path d="M40.9485 71.0624C40.088 71.164 39.2978 71.2164 38.5779 71.2231C38.2141 71.2254 37.9462 71.145 37.7744 70.9776C37.6047 70.8113 37.5177 70.5468 37.5154 70.183L37.502 68.4196C37.4987 68.0334 37.5835 67.7522 37.7565 67.5758C37.9317 67.3973 38.213 67.3068 38.6003 67.3035L40.5869 67.2856L40.5913 68.058L38.8235 68.0714C38.6025 68.0747 38.4942 68.1874 38.4976 68.4106L38.511 70.174C38.511 70.2611 38.5355 70.3292 38.5869 70.3794C38.6404 70.4274 38.7085 70.4497 38.7922 70.4464C39.2141 70.4441 39.6014 70.4319 39.9529 70.4106L39.944 69.6115L39.2253 69.6205L39.2208 68.9553L40.9306 68.9374L40.9485 71.0624Z" fill="white"/>
<path d="M45.4395 68.3372L44.9216 69.8327L44.1627 69.9711L43.1582 68.7434L43.5332 70.864L42.5555 71.0381L41.877 67.2301L42.9082 67.047L44.3591 68.864L45.0868 66.6586L46.118 66.4756L46.7966 70.2836L45.8145 70.4577L45.4395 68.3372Z" fill="white"/>
<path d="M51.327 68.7713L48.4342 69.7892L47.1484 66.1419L50.0413 65.124L50.3002 65.8517L48.3449 66.5392L48.5904 67.2446L50.1261 66.7044L50.385 67.4321L48.8493 67.9722L49.1172 68.7312L51.0725 68.0437L51.327 68.7713Z" fill="white"/>
<path d="M55.6509 66.615L54.7224 67.106L52.4679 65.6685L53.5527 67.7221L52.6688 68.1864L50.8652 64.7667L51.7938 64.2801L54.0483 65.7132L52.9679 63.6596L53.8474 63.1953L55.6509 66.615Z" fill="white"/>
<path d="M58.5804 64.5956L57.7812 65.1805L55.9554 62.6849L55.0179 63.3724L54.5625 62.7474L57.2366 60.7876L57.692 61.4126L56.7545 62.1001L58.5804 64.5956Z" fill="white"/>
</svg>
