<svg width="24" height="16" viewBox="0 0 24 16" fill="none" xmlns="http://www.w3.org/2000/svg">
<path d="M0 16V13.2C0 12.6333 0.153249 12.1125 0.459746 11.6375C0.766243 11.1625 1.17345 10.8 1.68136 10.55C2.76723 10.0333 3.87062 9.64583 4.99153 9.3875C6.11243 9.12917 7.25085 9 8.40678 9C9.56271 9 10.7011 9.12917 11.822 9.3875C12.9429 9.64583 14.0463 10.0333 15.1322 10.55C15.6401 10.8 16.0473 11.1625 16.3538 11.6375C16.6603 12.1125 16.8136 12.6333 16.8136 13.2V16H0ZM18.9153 16V13C18.9153 12.2667 18.7007 11.5625 18.2716 10.8875C17.8425 10.2125 17.2339 9.63333 16.4458 9.15C17.339 9.25 18.1797 9.42083 18.9678 9.6625C19.7559 9.90417 20.4915 10.2 21.1746 10.55C21.8051 10.8833 22.2867 11.2542 22.6195 11.6625C22.9523 12.0708 23.1186 12.5167 23.1186 13V16H18.9153ZM8.40678 8C7.25085 8 6.2613 7.60833 5.43814 6.825C4.61497 6.04167 4.20339 5.1 4.20339 4C4.20339 2.9 4.61497 1.95833 5.43814 1.175C6.2613 0.391667 7.25085 0 8.40678 0C9.56271 0 10.5523 0.391667 11.3754 1.175C12.1986 1.95833 12.6102 2.9 12.6102 4C12.6102 5.1 12.1986 6.04167 11.3754 6.825C10.5523 7.60833 9.56271 8 8.40678 8ZM18.9153 4C18.9153 5.1 18.5037 6.04167 17.6805 6.825C16.8573 7.60833 15.8678 8 14.7119 8C14.5192 8 14.274 7.97917 13.9763 7.9375C13.6785 7.89583 13.4333 7.85 13.2407 7.8C13.7136 7.26667 14.077 6.675 14.3309 6.025C14.5849 5.375 14.7119 4.7 14.7119 4C14.7119 3.3 14.5849 2.625 14.3309 1.975C14.077 1.325 13.7136 0.733333 13.2407 0.2C13.4859 0.116667 13.7311 0.0625 13.9763 0.0375C14.2215 0.0125 14.4667 0 14.7119 0C15.8678 0 16.8573 0.391667 17.6805 1.175C18.5037 1.95833 18.9153 2.9 18.9153 4ZM2.10169 14H14.7119V13.2C14.7119 13.0167 14.6637 12.85 14.5674 12.7C14.471 12.55 14.3441 12.4333 14.1864 12.35C13.2407 11.9 12.2862 11.5625 11.3229 11.3375C10.3596 11.1125 9.38757 11 8.40678 11C7.42599 11 6.45395 11.1125 5.49068 11.3375C4.5274 11.5625 3.57288 11.9 2.62712 12.35C2.46949 12.4333 2.34251 12.55 2.24619 12.7C2.14986 12.85 2.10169 13.0167 2.10169 13.2V14ZM8.40678 6C8.98475 6 9.47952 5.80417 9.8911 5.4125C10.3027 5.02083 10.5085 4.55 10.5085 4C10.5085 3.45 10.3027 2.97917 9.8911 2.5875C9.47952 2.19583 8.98475 2 8.40678 2C7.82881 2 7.33404 2.19583 6.92246 2.5875C6.51088 2.97917 6.30508 3.45 6.30508 4C6.30508 4.55 6.51088 5.02083 6.92246 5.4125C7.33404 5.80417 7.82881 6 8.40678 6Z" fill="white"/>
</svg>
