<svg width="34" height="31" viewBox="0 0 34 31" fill="none" xmlns="http://www.w3.org/2000/svg">
<path fill-rule="evenodd" clip-rule="evenodd" d="M7.78791 11.5166C8.81663 11.5166 9.80321 11.0734 10.5306 10.2845C11.258 9.49561 11.6667 8.42563 11.6667 7.30996C11.6667 6.19429 11.258 5.12432 10.5306 4.33542C9.80321 3.54652 8.81663 3.10332 7.78791 3.10332C6.75919 3.10332 5.7726 3.54652 5.04519 4.33542C4.31778 5.12432 3.90912 6.19429 3.90912 7.30996C3.90912 8.42563 4.31778 9.49561 5.04519 10.2845C5.7726 11.0734 6.75919 11.5166 7.78791 11.5166ZM7.78791 13.6199C8.55196 13.6199 9.30854 13.4567 10.0144 13.1396C10.7203 12.8225 11.3617 12.3577 11.902 11.7718C12.4423 11.1858 12.8708 10.4902 13.1632 9.72468C13.4556 8.95912 13.6061 8.1386 13.6061 7.30996C13.6061 6.48133 13.4556 5.66081 13.1632 4.89525C12.8708 4.12969 12.4423 3.43408 11.902 2.84815C11.3617 2.26221 10.7203 1.79742 10.0144 1.48032C9.30854 1.16321 8.55196 1 7.78791 1C6.24483 1 4.76495 1.6648 3.67383 2.84815C2.58271 4.03149 1.96973 5.63646 1.96973 7.30996C1.96973 8.98347 2.58271 10.5884 3.67383 11.7718C4.76495 12.9551 6.24483 13.6199 7.78791 13.6199Z" fill="#FFFFFF" stroke="#FFFFFF" stroke-width="1.5"/>
<path fill-rule="evenodd" clip-rule="evenodd" d="M5.56533 11.2983C5.65564 11.396 5.72728 11.512 5.77617 11.6398C5.82506 11.7676 5.85022 11.9045 5.85022 12.0429C5.85022 12.1812 5.82506 12.3182 5.77617 12.4459C5.72728 12.5737 5.65564 12.6897 5.56533 12.7874L4.90982 13.4963C3.64831 14.8648 2.93956 16.7206 2.93939 18.6557V22.5595C2.93939 22.8384 2.83723 23.1059 2.65538 23.3031C2.47352 23.5003 2.22688 23.6111 1.9697 23.6111C1.71252 23.6111 1.46587 23.5003 1.28402 23.3031C1.10216 23.1059 1 22.8384 1 22.5595V18.6557C1.00027 16.1628 1.91343 13.7721 3.53867 12.0092L4.19224 11.2983C4.28232 11.2003 4.38933 11.1226 4.50713 11.0696C4.62494 11.0166 4.75124 10.9893 4.87879 10.9893C5.00634 10.9893 5.13263 11.0166 5.25044 11.0696C5.36825 11.1226 5.47526 11.2003 5.56533 11.2983ZM28.4347 10.6673C28.3444 10.765 28.2727 10.881 28.2238 11.0088C28.1749 11.1366 28.1498 11.2735 28.1498 11.4119C28.1498 11.5502 28.1749 11.6872 28.2238 11.8149C28.2727 11.9427 28.3444 12.0587 28.4347 12.1564L29.0902 12.8653C30.3517 14.2338 31.0604 16.0896 31.0606 18.0247V22.5595C31.0606 22.8384 31.1628 23.1059 31.3446 23.3031C31.5265 23.5003 31.7731 23.6111 32.0303 23.6111C32.2875 23.6111 32.5341 23.5003 32.716 23.3031C32.8978 23.1059 33 22.8384 33 22.5595V18.0247C32.9997 15.5318 32.0866 13.1411 30.4613 11.3782L29.8078 10.6673C29.7177 10.5693 29.6107 10.4916 29.4929 10.4386C29.3751 10.3856 29.2488 10.3583 29.1212 10.3583C28.9937 10.3583 28.8674 10.3856 28.7496 10.4386C28.6318 10.4916 28.5247 10.5693 28.4347 10.6673Z" fill="#FFFFFF" stroke="#FFFFFF" stroke-width="1.5"/>
<path fill-rule="evenodd" clip-rule="evenodd" d="M25.2422 11.5166C24.2135 11.5166 23.2269 11.0734 22.4995 10.2845C21.7721 9.49561 21.3634 8.42563 21.3634 7.30996C21.3634 6.19429 21.7721 5.12432 22.4995 4.33542C23.2269 3.54652 24.2135 3.10332 25.2422 3.10332C26.2709 3.10332 27.2575 3.54652 27.9849 4.33542C28.7123 5.12432 29.121 6.19429 29.121 7.30996C29.121 8.42563 28.7123 9.49561 27.9849 10.2845C27.2575 11.0734 26.2709 11.5166 25.2422 11.5166ZM25.2422 13.6199C24.4781 13.6199 23.7216 13.4567 23.0157 13.1396C22.3098 12.8225 21.6684 12.3577 21.1281 11.7718C20.5879 11.1858 20.1593 10.4902 19.8669 9.72468C19.5745 8.95912 19.424 8.1386 19.424 7.30996C19.424 6.48133 19.5745 5.6608 19.8669 4.89524C20.1593 4.12968 20.5879 3.43408 21.1281 2.84815C21.6684 2.26221 22.3098 1.79742 23.0157 1.48032C23.7216 1.16321 24.4781 1 25.2422 1C26.7853 1 28.2652 1.6648 29.3563 2.84815C30.4474 4.03149 31.0604 5.63646 31.0604 7.30996C31.0604 8.98347 30.4474 10.5884 29.3563 11.7718C28.2652 12.9551 26.7853 13.6199 25.2422 13.6199ZM16.5149 20.4557C15.229 20.4557 13.9958 21.0097 13.0865 21.9958C12.1773 22.982 11.6664 24.3194 11.6664 25.714V28.4483C11.6664 28.7273 11.5643 28.9948 11.3824 29.192C11.2006 29.3892 10.9539 29.5 10.6967 29.5C10.4396 29.5 10.1929 29.3892 10.0111 29.192C9.82922 28.9948 9.72705 28.7273 9.72705 28.4483V25.714C9.72705 23.7616 10.4422 21.8891 11.7152 20.5086C12.9881 19.128 14.7147 18.3524 16.5149 18.3524C18.3152 18.3524 20.0417 19.128 21.3147 20.5086C22.5877 21.8891 23.3028 23.7616 23.3028 25.714V28.4483C23.3028 28.7273 23.2006 28.9948 23.0188 29.192C22.8369 29.3892 22.5903 29.5 22.3331 29.5C22.0759 29.5 21.8293 29.3892 21.6474 29.192C21.4656 28.9948 21.3634 28.7273 21.3634 28.4483V25.714C21.3634 25.0235 21.238 24.3397 20.9943 23.7018C20.7507 23.0638 20.3935 22.4841 19.9433 21.9958C19.4931 21.5076 18.9586 21.1202 18.3704 20.856C17.7821 20.5917 17.1516 20.4557 16.5149 20.4557Z" fill="#FFFFFF" stroke="#FFFFFF" stroke-width="1.5"/>
<path fill-rule="evenodd" clip-rule="evenodd" d="M16.515 17.3013C17.5437 17.3013 18.5303 16.8581 19.2577 16.0692C19.9851 15.2803 20.3937 14.2103 20.3937 13.0946C20.3937 11.979 19.9851 10.909 19.2577 10.1201C18.5303 9.33119 17.5437 8.88799 16.515 8.88799C15.4862 8.88799 14.4997 9.33119 13.7722 10.1201C13.0448 10.909 12.6362 11.979 12.6362 13.0946C12.6362 14.2103 13.0448 15.2803 13.7722 16.0692C14.4997 16.8581 15.4862 17.3013 16.515 17.3013ZM16.515 19.4046C18.058 19.4046 19.5379 18.7398 20.629 17.5565C21.7202 16.3731 22.3331 14.7681 22.3331 13.0946C22.3331 11.4211 21.7202 9.81616 20.629 8.63281C19.5379 7.44947 18.058 6.78467 16.515 6.78467C14.9719 6.78467 13.492 7.44947 12.4009 8.63281C11.3098 9.81616 10.6968 11.4211 10.6968 13.0946C10.6968 14.7681 11.3098 16.3731 12.4009 17.5565C13.492 18.7398 14.9719 19.4046 16.515 19.4046Z" fill="#FFFFFF" stroke="#FFFFFF" stroke-width="1.5"/>
</svg>
